<svg xmlns="http://www.w3.org/2000/svg" enable-background="new 0 0 55 55" viewBox="0 0 55 55" id="info"><path d="M27.5,52.5c-13.78,0-25-11.21-25-25s11.21-25,25-25c13.78,0,25,11.21,25,25S41.28,52.5,27.5,52.5z M27.5,4.5
			c-12.68,0-23,10.32-23,23s10.32,23,23,23c12.68,0,23-10.32,23-23S40.18,4.5,27.5,4.5z"></path><path d="M27.5 41.79c-1.94 0-3.52-1.58-3.52-3.52V26.33c0-1.94 1.58-3.52 3.52-3.52 1.94 0 3.52 1.58 3.52 3.52v11.94C31.02 40.21 29.44 41.79 27.5 41.79zM27.5 24.81c-.84 0-1.52.68-1.52 1.52v11.94c0 .84.68 1.52 1.52 1.52.84 0 1.52-.68 1.52-1.52V26.33C29.02 25.49 28.34 24.81 27.5 24.81zM27.5 20.25c-1.94 0-3.51-1.58-3.51-3.51 0-1.94 1.58-3.52 3.51-3.52 1.94 0 3.52 1.58 3.52 3.52C31.02 18.67 29.44 20.25 27.5 20.25zM27.5 15.21c-.83 0-1.51.68-1.51 1.52 0 .83.68 1.51 1.51 1.51.84 0 1.52-.68 1.52-1.51C29.02 15.89 28.34 15.21 27.5 15.21z"></path></svg>